<svg version="1.1" xmlns="http://www.w3.org/2000/svg" xmlns:xlink="http://www.w3.org/1999/xlink">
    <symbol viewBox="0 0 20 20" id="notification">
        <g clip-path="url(#clip0)">
        <path d="M18.2739 16.8692L16.8431 14.4842C16.1823 13.3834 15.8331 12.1225 15.8331 10.8392V8.75C15.8331 6.1125 14.0731 3.88168 11.6664 3.1625V1.66668C11.6664 0.7475 10.9189 0 9.99972 0C9.08054 0 8.33304 0.7475 8.33304 1.66668V3.1625C5.9264 3.88168 4.1664 6.1125 4.1664 8.75V10.8392C4.1664 12.1225 3.81722 13.3825 3.15722 14.4834L1.7264 16.8684C1.6489 16.9975 1.64722 17.1575 1.7214 17.2884C1.79558 17.4192 1.93308 17.5 2.08308 17.5H17.9164C18.0664 17.5 18.2047 17.4192 18.2789 17.2892C18.3531 17.1592 18.3506 16.9975 18.2739 16.8692Z" />
        <path d="M7.37555 18.3333C7.84555 19.315 8.84055 20 9.99969 20C11.1588 20 12.1539 19.315 12.6239 18.3333H7.37555Z" />
        </g>
        <defs>
        <clipPath id="clip0">
        <rect width="20" height="20" />
        </clipPath>
        </defs>
    </symbol>

    <symbol viewBox="0 0 16 17" id="meditation">
        <path d="M8.08826 0C7.08889 0 6.27551 0.813015 6.27551 1.81257C6.27551 2.81212 7.08871 3.6255 8.08826 3.6255C9.08799 3.6255 9.90101 2.81212 9.90101 1.81257C9.90101 0.813015 9.08799 0 8.08826 0Z" />
        <path d="M10.7425 9.77837C10.8937 10.4097 12.3922 10.7143 13.7145 10.9834C14.2451 11.0915 14.7036 11.1847 14.9804 11.2835C15.0913 11.3231 15.1998 11.3431 15.3036 11.3431C15.7244 11.3431 15.9758 11.0182 15.9984 10.7125C16.0171 10.4564 15.878 10.1334 15.4242 10.066C14.5417 9.93535 13.1158 9.38061 12.3875 8.96464C11.7228 8.58453 11.5535 6.91435 11.5175 6.41133C11.5115 6.32644 11.5112 6.23939 11.5108 6.14765C11.5088 5.74213 11.5065 5.28237 10.9892 4.85162C10.7212 4.62814 10.43 4.54902 10.1485 4.4726C9.77432 4.37077 9.38736 4.26587 9.01393 3.81764C8.99645 3.79656 8.96761 3.78827 8.94202 3.79656C8.67059 3.88361 8.39015 3.92794 8.10791 3.92794C7.68365 3.92794 7.38285 3.82666 7.31923 3.80323C7.31527 3.8007 7.3113 3.79854 7.30697 3.79638C7.27976 3.7852 7.2484 3.79295 7.22984 3.81566C6.8564 4.26371 6.46945 4.36879 6.09529 4.47043C5.81377 4.54685 5.5227 4.62615 5.25452 4.84946C4.73726 5.28021 4.73492 5.73997 4.73294 6.14567C4.73258 6.23759 4.73222 6.32446 4.72591 6.40934C4.69437 6.84892 4.35319 8.61355 3.67913 8.9987C2.95083 9.41467 1.52485 9.96942 0.642628 10.1001C0.169165 10.1702 -0.021518 10.5411 0.0019118 10.8561C0.0220975 11.133 0.219268 11.4307 0.603338 11.4307C0.699941 11.4307 0.803392 11.4114 0.910629 11.373C1.1844 11.2754 1.65408 11.1775 2.19801 11.0645C3.52324 10.7889 5.17234 10.4458 5.32445 9.81226C5.48594 9.14054 5.91578 8.13919 6.0733 7.78359C6.2301 8.13126 6.60588 9.13802 6.21028 10.0871L6.12737 10.2872C5.81738 11.036 5.74294 11.1944 5.48954 11.1944C5.38212 11.1944 5.24263 11.1663 5.04257 11.1231C4.78358 11.067 4.26452 11.0312 3.71951 11.0312C2.98579 11.0312 1.21486 11.0987 0.618837 11.727C0.478258 11.8753 0.411754 12.046 0.421847 12.2344C0.4952 13.6275 1.58072 13.9123 1.86765 13.9123C1.99831 13.9123 2.24451 14.0824 2.48241 14.2468C2.76952 14.4456 3.04076 14.633 3.23829 14.633C3.27596 14.633 3.31039 14.6262 3.34084 14.6127C3.38158 14.5945 3.42916 14.5811 3.48305 14.5728C3.28497 14.632 3.09231 14.7358 2.98309 14.9169C2.8371 15.1591 2.87171 15.4879 3.08582 15.8939C3.20099 16.1125 3.37455 16.2232 3.60146 16.2232C3.90262 16.2232 4.23695 16.0318 4.53216 15.8629C4.71942 15.7559 4.89641 15.6548 4.98706 15.6548C4.99499 15.6548 5.00166 15.6558 5.00707 15.6575C5.16729 15.7108 5.79611 15.7296 6.28597 15.7296C6.98256 15.7296 7.86461 15.694 8.10215 15.5937L8.21407 15.5951C8.51505 15.7249 9.74115 15.7315 9.98789 15.7315C10.4639 15.7315 11.0765 15.7126 11.2365 15.6593C11.2419 15.6576 11.2488 15.6566 11.2567 15.6566C11.3474 15.6566 11.5242 15.7578 11.7116 15.8651C12.0066 16.0338 12.3408 16.2252 12.6421 16.2252C12.869 16.2252 13.0426 16.1143 13.1576 15.8957C13.3719 15.4897 13.4063 15.1609 13.2601 14.9187C13.1513 14.7378 12.9584 14.6339 12.7605 14.5746C12.8144 14.5831 12.8618 14.5964 12.9027 14.6145C12.9332 14.6282 12.9676 14.6348 13.0051 14.6348C13.2028 14.6348 13.4741 14.4474 13.7606 14.249C13.9991 14.0842 14.2451 13.9141 14.3756 13.9141C14.6627 13.9141 15.7482 13.6295 15.8217 12.2365C15.8317 12.0476 15.7651 11.8771 15.6246 11.7288C15.0291 11.1014 13.2583 11.0335 12.5246 11.0335C11.9798 11.0335 11.4605 11.0695 11.2016 11.1254C11.0011 11.1685 10.8616 11.1968 10.7544 11.1968C10.501 11.1968 10.4266 11.0382 10.1166 10.289L10.0337 10.0893C9.64581 9.1582 9.99978 8.17199 10.1616 7.80648C10.2827 8.17776 10.5848 9.12252 10.7425 9.77837Z" />
    </symbol>

    <symbol viewBox="0 0 16 16" id="music">
        <path d="M6.40625 4.0625C5.11391 4.0625 4.0625 5.11391 4.0625 6.40625C4.0625 7.69859 5.11391 8.75 6.40625 8.75C7.69859 8.75 8.75 7.69859 8.75 6.40625C8.75 5.11391 7.69859 4.0625 6.40625 4.0625ZM6.40625 7.34375C5.88847 7.34375 5.46875 6.924 5.46875 6.40625C5.46875 5.88847 5.88847 5.46875 6.40625 5.46875C6.92403 5.46875 7.34375 5.88847 7.34375 6.40625C7.34375 6.924 6.92403 7.34375 6.40625 7.34375Z" />
        <path d="M15.8197 7.81804C15.7059 7.7292 15.5576 7.69773 15.4176 7.73276L10.4176 8.98276C10.2089 9.03492 10.0625 9.22242 10.0625 9.43751V13.2681C9.91578 13.2161 9.75806 13.1875 9.59375 13.1875C8.81834 13.1875 8.1875 13.8184 8.1875 14.5938C8.1875 15.3692 8.81834 16 9.59375 16C10.3692 16 11 15.3692 11 14.5938V11.1953L15.0625 10.1797V12.6431C14.9158 12.5911 14.7581 12.5625 14.5938 12.5625C13.8183 12.5625 13.1875 13.1934 13.1875 13.9688C13.1875 14.7442 13.8183 15.375 14.5938 15.375C15.3692 15.375 16 14.7442 16 13.9688V8.18751C16 8.04317 15.9335 7.90689 15.8197 7.81804Z" />
        <path d="M10.1903 8.07325L12.7295 7.43844C12.7845 7.09925 12.8125 6.75466 12.8125 6.40625C12.8125 2.87384 9.93866 0 6.40625 0C2.87381 0 0 2.87384 0 6.40625C0 9.93866 2.87381 12.8125 6.40625 12.8125C7.35972 12.8125 8.28375 12.6031 9.125 12.2082V9.4375C9.125 8.791 9.56306 8.22997 10.1903 8.07325ZM6.40625 9.6875C4.59697 9.6875 3.125 8.21553 3.125 6.40625C3.125 4.59697 4.59697 3.125 6.40625 3.125C8.21553 3.125 9.6875 4.59697 9.6875 6.40625C9.6875 8.21553 8.21553 9.6875 6.40625 9.6875Z" />
    </symbol>

    <symbol viewBox="0 0 16 16" id="users">
        <path d="M13.6903 8.54126H12.4529C12.5791 8.88657 12.648 9.25923 12.648 9.64764V14.3242C12.648 14.4861 12.6198 14.6416 12.5685 14.7861H14.6142C15.3783 14.7861 16 14.1645 16 13.4003V10.8509C16 9.57739 14.9639 8.54126 13.6903 8.54126Z" />
        <path d="M3.35204 9.64764C3.35204 9.2592 3.42094 8.88657 3.54707 8.54126H2.30969C1.03613 8.54126 0 9.57739 0 10.851V13.4004C0 14.1645 0.621657 14.7862 1.38582 14.7862H3.43151C3.38023 14.6416 3.35204 14.4861 3.35204 14.3242V9.64764Z" />
        <path d="M9.41445 7.33801H6.58563C5.31207 7.33801 4.27594 8.37414 4.27594 9.64771V14.3243C4.27594 14.5794 4.48275 14.7862 4.73788 14.7862H11.2622C11.5173 14.7862 11.7241 14.5794 11.7241 14.3243V9.64771C11.7241 8.37414 10.688 7.33801 9.41445 7.33801Z" />
        <path d="M7.99998 1.21381C6.46835 1.21381 5.22229 2.45987 5.22229 3.99153C5.22229 5.03044 5.7957 5.93778 6.64251 6.41416C7.04417 6.6401 7.50723 6.76922 7.99998 6.76922C8.49273 6.76922 8.9558 6.6401 9.35745 6.41416C10.2043 5.93778 10.7777 5.03041 10.7777 3.99153C10.7777 2.4599 9.53161 1.21381 7.99998 1.21381Z" />
        <path d="M3.12245 3.8028C1.97698 3.8028 1.0451 4.73467 1.0451 5.88014C1.0451 7.02562 1.97698 7.95749 3.12245 7.95749C3.41302 7.95749 3.6897 7.89731 3.94105 7.78912C4.37561 7.60202 4.73392 7.27083 4.95564 6.85599C5.11127 6.56483 5.1998 6.23268 5.1998 5.88014C5.1998 4.7347 4.26792 3.8028 3.12245 3.8028Z" />
        <path d="M12.8776 3.8028C11.7321 3.8028 10.8002 4.73467 10.8002 5.88014C10.8002 6.23271 10.8888 6.56486 11.0444 6.85599C11.2661 7.27087 11.6244 7.60205 12.059 7.78912C12.3103 7.89731 12.587 7.95749 12.8776 7.95749C14.023 7.95749 14.9549 7.02562 14.9549 5.88014C14.9549 4.73467 14.023 3.8028 12.8776 3.8028Z" />
    </symbol>

    <symbol viewBox="0 0 16 16" id="promocode">
        <g clip-path="url(#clip0)">
        <path d="M14.9565 3.11642H13.7919C13.9455 2.87329 14.0469 2.60038 14.0758 2.31176C14.1681 1.38935 13.6823 0.562479 12.8553 0.195885C12.0951 -0.141084 11.2408 -0.00333363 10.6257 0.554604L9.15506 1.88742C8.86866 1.57417 8.45694 1.37729 8 1.37729C7.54225 1.37729 7.12988 1.57479 6.84341 1.88901L5.37091 0.554448C4.75475 -0.00348985 3.90081 -0.140709 3.14097 0.196073C2.31416 0.562698 1.82828 1.38985 1.92091 2.31223C1.94987 2.60063 2.05119 2.87342 2.20478 3.11642H1.04347C0.467156 3.11642 0 3.5836 0 4.15988V5.7251C0 6.01323 0.233594 6.24685 0.52175 6.24685H15.4783C15.7664 6.24685 16 6.01326 16 5.7251V4.15988C16 3.5836 15.5328 3.11642 14.9565 3.11642ZM6.43478 2.94251V3.11642H3.98031C3.33181 3.11642 2.82144 2.51185 2.98341 1.83667C3.05475 1.53932 3.26937 1.28585 3.54697 1.15754C3.92816 0.981354 4.35041 1.03792 4.67056 1.3277L6.43522 2.92713C6.43512 2.93229 6.43478 2.93735 6.43478 2.94251ZM13.0404 2.17323C13.0016 2.71551 12.5117 3.11648 11.9681 3.11648H9.56522V2.94257C9.56522 2.93642 9.56484 2.93032 9.56478 2.92417C9.96453 2.56179 10.8317 1.77579 11.3021 1.34945C11.5694 1.10717 11.9434 0.994073 12.2892 1.0972C12.7853 1.2452 13.0767 1.66713 13.0404 2.17323Z" />
        <path d="M1.04346 7.29034V14.9425C1.04346 15.5188 1.51061 15.986 2.08693 15.986H6.95649V7.29034H1.04346Z" />
        <path d="M9.04346 7.29034V15.986H13.913C14.4893 15.986 14.9565 15.5188 14.9565 14.9425V7.29034H9.04346Z" />
        </g>
        <defs>
        <clipPath id="clip0">
        <rect width="16" height="16" />
        </clipPath>
        </defs>
    </symbol>

    <symbol viewBox="0 0 16 16" id="email">
        <g clip-path="url(#clip0)">
        <path d="M1.53568 5.58934C1.73808 5.73217 2.34818 6.15635 3.36602 6.86168C4.38389 7.56701 5.16365 8.11009 5.70532 8.49096C5.76484 8.53271 5.89127 8.62346 6.08469 8.76335C6.27815 8.90333 6.43889 9.01644 6.5668 9.10272C6.6948 9.18897 6.84953 9.28573 7.03117 9.39284C7.21274 9.49985 7.38389 9.58035 7.5446 9.63364C7.70535 9.68737 7.85414 9.71398 7.99102 9.71398H8H8.00901C8.14589 9.71398 8.29475 9.68734 8.45549 9.63364C8.61614 9.58035 8.78745 9.49976 8.96886 9.39284C9.15037 9.2856 9.30511 9.18894 9.43311 9.10272C9.56111 9.01644 9.72173 8.90333 9.91524 8.76335C10.1086 8.62334 10.2352 8.53271 10.2947 8.49096C10.8423 8.11009 12.2352 7.14279 14.4733 5.58915C14.9078 5.28571 15.2708 4.91957 15.5624 4.49098C15.8542 4.06257 16 3.61315 16 3.14296C16 2.75005 15.8586 2.41371 15.5758 2.13397C15.293 1.85418 14.9582 1.71436 14.5714 1.71436H1.42851C0.970209 1.71436 0.617514 1.86909 0.370489 2.17857C0.123496 2.48811 0 2.87502 0 3.33926C0 3.71425 0.163745 4.12061 0.491077 4.55809C0.818379 4.9956 1.1667 5.33938 1.53568 5.58934Z" />
        <path d="M15.107 6.54461C13.1548 7.86592 11.6725 8.89279 10.6607 9.62501C10.3215 9.87492 10.0462 10.07 9.83485 10.2098C9.62348 10.3497 9.34237 10.4925 8.99111 10.6383C8.63998 10.7843 8.31274 10.857 8.00912 10.857H8.00002H7.99104C7.68748 10.857 7.36005 10.7843 7.00892 10.6383C6.65779 10.4925 6.37649 10.3497 6.16518 10.2098C5.95393 10.07 5.67861 9.87492 5.33936 9.62501C4.53574 9.03577 3.0566 8.00883 0.901876 6.54461C0.562504 6.31857 0.26191 6.05947 0 5.76785V12.8569C0 13.25 0.139821 13.5862 0.419618 13.866C0.699353 14.1458 1.03572 14.2857 1.4286 14.2857H14.5715C14.9643 14.2857 15.3006 14.1458 15.5804 13.866C15.8602 13.5861 16 13.2501 16 12.8569V5.76785C15.744 6.05344 15.4465 6.31253 15.107 6.54461Z" />
        </g>
        <defs>
        <clipPath id="clip0">
        <rect width="16" height="16" />
        </clipPath>
        </defs>
    </symbol>

    <symbol viewBox="0 0 16 16" id="lamp">
        <g clip-path="url(#clip0)">
        <path d="M8 2.30467C7.724 2.30467 7.5 2.08067 7.5 1.80467V0.5C7.5 0.224 7.724 0 8 0C8.276 0 8.5 0.224 8.5 0.5V1.80467C8.5 2.08067 8.276 2.30467 8 2.30467Z" />
        <path d="M12.3807 4.1193C12.2527 4.1193 12.1247 4.07063 12.0274 3.97263C11.832 3.7773 11.832 3.46063 12.0274 3.2653L12.95 2.34264C13.1454 2.1473 13.462 2.1473 13.6574 2.34264C13.8527 2.53797 13.8527 2.85464 13.6574 3.04997L12.7347 3.97263C12.6367 4.06997 12.5087 4.1193 12.3807 4.1193Z" />
        <path d="M15.5 8.5H14.1953C13.9193 8.5 13.6953 8.276 13.6953 8C13.6953 7.724 13.9193 7.5 14.1953 7.5H15.5C15.776 7.5 16 7.724 16 8C16 8.276 15.776 8.5 15.5 8.5Z" />
        <path d="M13.3034 13.8032C13.1754 13.8032 13.0474 13.7545 12.95 13.6565L12.0274 12.7338C11.832 12.5385 11.832 12.2218 12.0274 12.0265C12.2227 11.8312 12.5394 11.8312 12.7347 12.0265L13.6574 12.9492C13.8527 13.1445 13.8527 13.4612 13.6574 13.6565C13.5594 13.7545 13.4314 13.8032 13.3034 13.8032Z" />
        <path d="M2.69667 13.8032C2.56867 13.8032 2.44067 13.7545 2.34334 13.6565C2.14801 13.4612 2.14801 13.1445 2.34334 12.9492L3.266 12.0265C3.46133 11.8312 3.778 11.8312 3.97333 12.0265C4.16866 12.2218 4.16866 12.5385 3.97333 12.7338L3.05067 13.6565C2.95267 13.7545 2.82467 13.8032 2.69667 13.8032Z" />
        <path d="M1.80467 8.5H0.5C0.224 8.5 0 8.276 0 8C0 7.724 0.224 7.5 0.5 7.5H1.80467C2.08067 7.5 2.30467 7.724 2.30467 8C2.30467 8.276 2.08067 8.5 1.80467 8.5Z" />
        <path d="M3.61933 4.1193C3.49133 4.1193 3.36333 4.07063 3.266 3.97263L2.34334 3.04997C2.14801 2.85464 2.14801 2.53797 2.34334 2.34264C2.53867 2.1473 2.85534 2.1473 3.05067 2.34264L3.97333 3.2653C4.16866 3.46063 4.16866 3.7773 3.97333 3.97263C3.87466 4.06997 3.74733 4.1193 3.61933 4.1193Z" />
        <path d="M10 14V14.8333C10 15.4733 9.47333 16 8.83333 16H7.16667C6.60667 16 6 15.5733 6 14.64V14H10Z" />
        <path d="M10.94 4.37347C9.84665 3.4868 8.40665 3.14013 6.99998 3.44013C5.23332 3.8068 3.79998 5.2468 3.43332 7.01347C3.05998 8.8268 3.73998 10.6268 5.19332 11.7268C5.58665 12.0201 5.85998 12.4735 5.95332 13.0001V13.0068C5.96665 13.0001 5.98665 13.0001 5.99998 13.0001H9.99998C10.0133 13.0001 10.02 13.0001 10.0333 13.0068V13.0001C10.1266 12.4935 10.4266 12.0268 10.8866 11.6668C12.0133 10.7735 12.6666 9.44013 12.6666 8.00013C12.6666 6.5868 12.04 5.2668 10.94 4.37347ZM10.5 8.33347C10.2266 8.33347 9.99998 8.1068 9.99998 7.83347C9.99998 6.82013 9.17998 6.00013 8.16665 6.00013C7.89332 6.00013 7.66665 5.77347 7.66665 5.50013C7.66665 5.2268 7.89332 5.00013 8.16665 5.00013C9.72665 5.00013 11 6.27347 11 7.83347C11 8.1068 10.7733 8.33347 10.5 8.33347Z" />
        <path d="M5.95331 13H5.99997C5.98664 13 5.96664 13 5.95331 13.0067V13Z" />
        <path d="M10.0333 13V13.0067C10.02 13 10.0133 13 10 13H10.0333Z" />
        </g>
        <defs>
        <clipPath id="clip0">
        <rect width="16" height="16" fill="white"/>
        </clipPath>
        </defs>
    </symbol>

    <symbol viewBox="0 0 15 13" id="arrow-back">
        <path d="M0.239729 7.08278L5.65677 12.4999C5.8114 12.6546 6.0175 12.7394 6.23725 12.7394C6.45725 12.7394 6.66323 12.6544 6.81786 12.4999L7.30968 12.008C7.4642 11.8536 7.54932 11.6474 7.54932 11.4275C7.54932 11.2077 7.4642 10.9946 7.30968 10.8402L4.14946 7.67302L14.1896 7.67302C14.6423 7.67302 15 7.31863 15 6.86583L15 6.17035C15 5.71755 14.6423 5.32743 14.1896 5.32743L4.11361 5.32743L7.30956 2.14258C7.46407 1.98794 7.54919 1.78734 7.54919 1.56746C7.54919 1.34783 7.46407 1.14429 7.30956 0.989781L6.81773 0.49942C6.6631 0.344787 6.45713 0.26052 6.23713 0.26052C6.01737 0.26052 5.81128 0.345884 5.65665 0.500517L0.239607 5.91755C0.0846084 6.07267 -0.000634758 6.27974 -2.43873e-05 6.49986C-0.000512649 6.72071 0.0846085 6.9279 0.239729 7.08278Z" />
    </symbol>
</svg>