<svg width="49" height="48" viewBox="0 0 49 48" fill="none" xmlns="http://www.w3.org/2000/svg">
<g clip-path="url(#clip0)">
<path opacity="0.9" d="M28.2746 5.6858C28.2947 2.95063 25.1149 0.00458952 24.3253 5.42718e-06C23.5358 -0.00457866 20.316 2.89562 20.296 5.62927C20.276 8.36291 22.0521 9.88636 24.2545 9.90775C26.457 9.92914 28.2546 8.41334 28.2746 5.6858Z" fill="white"/>
<g opacity="0.8">
<path opacity="0.8" d="M15.0939 7.74862C13.3393 5.64147 8.99599 5.41227 8.38804 5.91499C7.7801 6.41771 7.19063 10.6931 8.94519 12.8003C10.6998 14.9074 13.0469 14.9395 14.7445 13.546C16.4421 12.1524 16.85 9.85425 15.0939 7.74862Z" fill="white"/>
</g>
<g opacity="0.7">
<path opacity="0.7" d="M6.33947 17.7343C3.63067 17.2408 0.155408 19.8369 0.0122731 20.6086C-0.130862 21.3802 2.18855 25.0398 4.89735 25.5258C7.60614 26.0117 9.42535 24.5478 9.82243 22.3964C10.2195 20.2449 9.04211 18.2325 6.33947 17.7343Z" fill="white"/>
</g>
<g opacity="0.6">
<path opacity="0.6" d="M6.09021 30.9839C3.69539 32.3347 2.71499 36.5413 3.10438 37.2228C3.49376 37.9043 7.63545 39.223 10.0303 37.8722C12.4251 36.5215 12.8653 34.2371 11.7771 32.3316C10.689 30.4261 8.48503 29.6331 6.09021 30.9839Z" fill="white"/>
</g>
<g opacity="0.5">
<path opacity="0.5" d="M14.4797 41.2843C13.5193 43.8483 15.4909 47.702 16.2312 47.9694C16.9715 48.2368 21.0024 46.6095 21.9581 44.047C22.9139 41.4845 21.7734 39.4507 19.708 38.6882C17.6425 37.9257 15.4386 38.7218 14.4797 41.2843Z" fill="white"/>
</g>
<g opacity="0.4">
<path opacity="0.4" d="M27.5789 43.8223C28.5023 46.3986 32.504 48.0886 33.2489 47.8258C33.9938 47.5629 36.0192 43.7413 35.0958 41.1666C34.1723 38.5919 31.9807 37.7622 29.9044 38.4956C27.8282 39.2291 26.6554 41.2461 27.5789 43.8223Z" fill="white"/>
</g>
<g opacity="0.9">
<path opacity="0.3" d="M39.2497 37.4092C41.6245 38.7936 45.7847 37.533 46.1848 36.8576C46.585 36.1822 45.6631 31.9679 43.2882 30.5774C40.9134 29.1869 38.6971 29.9585 37.5828 31.8457C36.4685 33.7328 36.8749 36.0248 39.2497 37.4092Z" fill="white"/>
</g>
<g opacity="0.2">
<path opacity="0.2" d="M44.0473 25.0459C46.7622 24.5875 49.134 20.9707 49.0016 20.1975C48.8692 19.4243 45.4325 16.7793 42.7114 17.2346C39.9902 17.69 38.7944 19.6902 39.1607 21.8478C39.527 24.0053 41.3246 25.5013 44.0473 25.0459Z" fill="white"/>
</g>
<path d="M39.7069 12.5176C41.4923 10.4349 40.9644 6.1488 40.3626 5.64149C39.7608 5.13419 35.4159 5.29921 33.6306 7.38192C31.8453 9.46462 32.2208 11.7628 33.8984 13.1808C35.576 14.5988 37.9216 14.5988 39.7069 12.5176Z" fill="white"/>
<path d="M33.7584 28.2334V28.1906C33.742 28.1372 33.7192 28.0859 33.6906 28.0378C33.6989 27.9946 33.6968 27.9501 33.6845 27.9079C33.6722 27.8657 33.65 27.827 33.6198 27.7948C33.6378 27.7964 33.6558 27.7964 33.6737 27.7948C33.6814 27.7355 33.6814 27.6754 33.6737 27.6161C33.5922 27.5477 33.4879 27.5122 33.3813 27.5167C33.2755 27.5221 33.1714 27.5454 33.0735 27.5855C33.036 27.6007 32.995 27.6055 32.9549 27.5992C32.8595 27.584 32.6671 27.5534 32.3947 27.506C32.0795 27.4754 31.7613 27.4961 31.4528 27.5672C31.4 27.577 31.3454 27.5678 31.2989 27.5412C30.9387 27.3273 29.375 26.3753 28.9826 25.7381C28.5393 25.0184 28.4824 23.0763 28.4947 22.6973C28.507 22.3184 28.4423 21.3221 28.0191 20.8836C27.5958 20.445 26.4508 20.2403 26.1429 20.0905C26.0024 20.037 25.876 19.9525 25.7731 19.8435C25.6702 19.7344 25.5935 19.6036 25.5489 19.461C25.4758 19.1814 25.4514 18.8915 25.4765 18.6037C25.4787 18.5518 25.5007 18.5026 25.5381 18.4662C25.6086 18.3906 25.6612 18.3003 25.692 18.2019C25.7557 18.0061 25.8071 17.8065 25.8459 17.6044C25.8699 17.6144 25.8966 17.6164 25.9218 17.6101C25.9471 17.6037 25.9696 17.5894 25.986 17.5693C26.1073 17.3294 26.1879 17.0712 26.2245 16.8052C26.243 16.6616 26.2153 16.5944 26.1814 16.5623C26.1595 16.5401 26.1429 16.5134 26.1328 16.4841C26.1227 16.4547 26.1193 16.4235 26.1229 16.3927C26.1528 15.9952 26.0707 15.5974 25.8859 15.2436C25.8546 15.1842 25.8147 15.1296 25.7674 15.0816C24.7778 14.0701 23.5988 14.7393 23.3464 14.9747C23.3372 14.9838 23.2294 15.0725 23.2217 15.0832C23.194 15.1214 23.1371 15.1947 23.1371 15.1947C22.9063 15.5522 22.8114 15.9796 22.8693 16.4003C22.873 16.4323 22.8697 16.4647 22.8596 16.4953C22.8495 16.5259 22.8329 16.554 22.8108 16.5776C22.7898 16.6124 22.776 16.6509 22.7702 16.6911C22.7644 16.7312 22.7667 16.7721 22.7769 16.8114C22.814 17.077 22.894 17.335 23.014 17.5754C23.0253 17.5909 23.0408 17.6031 23.0586 17.6105C23.0883 17.6212 23.1151 17.6386 23.1367 17.6615C23.1584 17.6843 23.1743 17.7119 23.1833 17.7419C23.2177 17.8998 23.2619 18.0555 23.3156 18.208C23.3465 18.3064 23.3991 18.3967 23.4695 18.4723C23.5064 18.5091 23.5283 18.558 23.5311 18.6098C23.5557 18.8977 23.5307 19.1876 23.4572 19.4671C23.4134 19.61 23.3373 19.741 23.2346 19.8501C23.1318 19.9593 23.0053 20.0436 22.8647 20.0966C22.5569 20.2494 21.4118 20.4496 20.9885 20.8897C20.5653 21.3297 20.4991 22.3184 20.5176 22.6958C20.536 23.0732 20.4729 25.0169 20.0297 25.7366C19.6372 26.3738 18.072 27.3257 17.7118 27.5397C17.6652 27.5662 17.6107 27.5754 17.5579 27.5656C17.2494 27.4944 16.9312 27.4737 16.616 27.5045C16.3466 27.5519 16.1542 27.5824 16.0573 27.5977C16.0168 27.6039 15.9753 27.5992 15.9372 27.584C15.8394 27.5437 15.7352 27.5204 15.6294 27.5152C15.5233 27.5109 15.4195 27.5464 15.3385 27.6145C15.3308 27.6739 15.3308 27.734 15.3385 27.7933C15.3565 27.7949 15.3745 27.7949 15.3924 27.7933C15.3622 27.8254 15.3401 27.8642 15.3278 27.9064C15.3155 27.9486 15.3133 27.9931 15.3216 28.0363C15.2923 28.084 15.2696 28.1354 15.2539 28.1891V28.2318L15.2354 28.2502L15.3278 28.3923C15.346 28.4204 15.3576 28.4523 15.3616 28.4855C15.3724 28.5863 15.4093 28.8125 15.5278 28.8553C15.6008 28.8892 15.6825 28.8999 15.7618 28.8858C15.8936 28.9186 16.0292 28.9335 16.165 28.9302C16.3506 28.9409 16.5366 28.9409 16.7222 28.9302C16.8468 28.9027 16.8761 28.8538 16.8761 28.8538L17.1146 28.8125C17.1146 28.8125 16.753 29.2709 16.8068 29.5765C16.8607 29.8821 17.4486 30.4368 17.8303 30.7348C18.212 31.0327 20.1836 31.7509 20.1836 31.7509C20.0441 31.7515 19.9049 31.7382 19.768 31.7112C19.5202 31.6669 19.1739 31.8059 19.1262 31.9709C19.0785 32.136 19.0831 32.3117 19.2001 32.3575C19.3171 32.4034 19.5541 32.3193 19.7573 32.2918C19.8494 32.2722 19.9456 32.2863 20.0281 32.3316C19.8839 32.3374 19.7406 32.3574 19.6003 32.3911L19.3571 32.4141C19.2355 32.4232 19.1662 32.4752 19.1662 32.5669C19.1655 32.5796 19.1655 32.5923 19.1662 32.6051C19.1939 33.4485 19.6541 33.4531 19.808 33.4547C20.0004 33.4547 20.1867 33.4547 20.359 33.4348C20.5314 33.4149 21.675 33.4088 22.4938 33.4073C22.7445 33.4014 22.9926 33.3545 23.2279 33.2682L23.2695 33.253C23.575 33.1312 23.8869 33.0256 24.2037 32.9367C24.4147 32.8786 24.6376 32.8786 24.8486 32.9367C25.1564 33.0161 25.7997 33.2346 25.8474 33.253C26.0934 33.3467 26.3536 33.3984 26.617 33.4058H26.6247C27.4773 33.4058 28.2869 33.4302 28.4393 33.4363C28.5916 33.4424 28.8009 33.4577 28.9933 33.4562C29.1472 33.4562 29.6228 33.4562 29.6382 32.5684C29.6382 32.4737 29.569 32.4232 29.4489 32.4156L29.2088 32.3927C29.0674 32.359 28.9231 32.3385 28.7779 32.3316C28.861 32.288 28.9567 32.2745 29.0487 32.2934C29.2504 32.3209 29.492 32.4049 29.6074 32.3591C29.7229 32.3132 29.7259 32.139 29.6798 31.9725C29.6747 31.9286 29.6601 31.8864 29.6371 31.8486C29.614 31.8109 29.583 31.7786 29.5461 31.7539C29.5092 31.7292 29.4674 31.7128 29.4236 31.7056C29.3797 31.6985 29.3348 31.7009 29.2919 31.7127C29.0701 31.7428 28.8463 31.756 28.6224 31.7524C28.6224 31.7524 30.931 31.0358 31.3097 30.7363C31.6883 30.4368 32.2054 29.8882 32.2516 29.578C32.2978 29.2679 31.9438 28.814 31.9438 28.814L32.1808 28.8553C32.1808 28.8553 32.2023 28.9042 32.3347 28.9317C32.5203 28.9425 32.7063 28.9425 32.8918 28.9317C33.0276 28.9348 33.1633 28.9199 33.2951 28.8874C33.3739 28.9014 33.4551 28.8908 33.5275 28.8568C33.646 28.814 33.6814 28.5864 33.6952 28.487C33.6993 28.4538 33.7109 28.422 33.7291 28.3938L33.8215 28.2517L33.7584 28.2334ZM16.1789 28.2532C16.1681 28.2716 16.0404 28.3938 16.0404 28.3938C15.9927 28.3485 15.9395 28.3095 15.8818 28.2777C15.7989 28.2696 15.7154 28.2696 15.6325 28.2777C15.6147 28.2287 15.6064 28.1769 15.6079 28.1249C15.6031 28.0648 15.6206 28.005 15.6571 27.9568C15.6986 27.9843 15.7473 27.9991 15.7972 27.9996C15.8772 27.9996 15.9926 27.9996 15.9926 27.9996C16.0058 28.0299 16.0292 28.0548 16.0588 28.0699L16.182 28.1172V28.1646C16.1743 28.1906 16.1896 28.2349 16.1789 28.2532ZM21.6673 29.3106C21.6573 29.3394 21.6415 29.3658 21.6207 29.3881C21.5999 29.4104 21.5746 29.4282 21.5465 29.4403C21.5184 29.4524 21.4881 29.4585 21.4575 29.4583C21.4268 29.458 21.3966 29.4515 21.3687 29.439C21.1055 29.3229 20.6284 29.112 20.0758 28.8721C19.7284 28.7285 19.3676 28.6195 18.9985 28.5466C18.9502 28.5389 18.9059 28.5155 18.8725 28.48C18.8391 28.4445 18.8186 28.3989 18.8142 28.3506C18.8098 28.3022 18.8217 28.2538 18.8481 28.2129C18.8745 28.1721 18.9139 28.1411 18.96 28.1249C19.3417 27.9721 19.8111 27.7765 20.2375 27.5763C21.1609 27.1408 21.5826 26.4165 21.6011 26.2286C21.6336 25.8726 21.6959 25.52 21.7873 25.1743C21.8032 25.1288 21.8337 25.0898 21.8742 25.0632C21.9146 25.0366 21.9626 25.0238 22.011 25.027C22.0594 25.0301 22.1054 25.0489 22.142 25.0804C22.1786 25.112 22.2038 25.1546 22.2136 25.2018C22.3172 25.6504 22.378 26.1078 22.3953 26.5678C22.3891 27.1851 21.8689 28.7361 21.6673 29.3106ZM29.9999 28.5466C29.6306 28.6188 29.2697 28.7278 28.9225 28.8721C28.37 29.112 27.8929 29.3213 27.6297 29.439C27.6017 29.4512 27.5715 29.4576 27.541 29.4577C27.5104 29.4578 27.4802 29.4517 27.4521 29.4396C27.4241 29.4276 27.3989 29.4099 27.3781 29.3877C27.3572 29.3655 27.3412 29.3393 27.3311 29.3106C27.1295 28.73 26.6108 27.1851 26.597 26.5602C26.6143 26.0997 26.6751 25.6418 26.7786 25.1926C26.7884 25.1455 26.8136 25.1028 26.8502 25.0713C26.8868 25.0397 26.9328 25.0209 26.9812 25.0178C27.0296 25.0147 27.0777 25.0274 27.1181 25.054C27.1585 25.0806 27.189 25.1196 27.2049 25.1651V25.1727C27.2966 25.5183 27.3584 25.871 27.3896 26.2271C27.4081 26.415 27.8313 27.1439 28.7532 27.5748C29.1796 27.775 29.649 27.9706 30.0307 28.1234C30.0775 28.1384 30.1179 28.1686 30.1454 28.2092C30.1729 28.2497 30.1859 28.2982 30.1824 28.347C30.1788 28.3957 30.1589 28.4419 30.1258 28.4781C30.0928 28.5143 30.0484 28.5384 29.9999 28.5466ZM33.3751 28.2716C33.2922 28.2635 33.2087 28.2635 33.1258 28.2716C33.0656 28.3037 33.0098 28.3432 32.9596 28.3892C32.9596 28.3892 32.8318 28.267 32.821 28.2487C32.8103 28.2303 32.821 28.186 32.821 28.1539V28.1066L32.9442 28.0592C32.9735 28.0442 32.9965 28.0193 33.0088 27.9889C33.0088 27.9889 33.1258 27.9889 33.2058 27.9889C33.2556 27.9881 33.3042 27.9732 33.3459 27.9461C33.3814 27.9947 33.3984 28.0543 33.3936 28.1142C33.3998 28.1694 33.3935 28.2252 33.3751 28.2777V28.2716Z" fill="white"/>
</g>
<defs>
<clipPath id="clip0">
<rect width="49" height="48" fill="white"/>
</clipPath>
</defs>
</svg>
