<svg width="33" height="45" viewBox="0 0 33 45" fill="none" xmlns="http://www.w3.org/2000/svg">
    <path d="M16.5001 0C7.51368 0 0.202759 7.31092 0.202759 16.2972C0.202759 27.4495 14.7872 43.8217 15.4082 44.5132C15.9914 45.1628 17.0097 45.1616 17.5919 44.5132C18.2129 43.8217 32.7973 27.4495 32.7973 16.2972C32.7972 7.31092 25.4863 0 16.5001 0ZM16.5001 24.4968C11.9788 24.4968 8.30056 20.8185 8.30056 16.2972C8.30056 11.7759 11.9789 8.09772 16.5001 8.09772C21.0212 8.09772 24.6995 11.776 24.6995 16.2973C24.6995 20.8186 21.0212 24.4968 16.5001 24.4968Z" fill="#5D58B7"/>
</svg>
